<svg width="60" height="20" viewBox="0 0 60 20" fill="none" xmlns="http://www.w3.org/2000/svg">
<path d="M14.866 20C13.4174 20 12.1003 19.5714 11.066 18.6771C10.9889 18.6114 10.9146 18.5429 10.8431 18.4714C7.45173 20.4114 4.04602 20.52 1.92032 18.6771C0.303181 17.2772 -0.322531 15.02 0.157467 12.3229C0.588894 9.88861 1.8946 7.32291 3.83174 5.10006C8.07458 0.23436 13.8803 -1.42278 17.0517 1.32293L15.1717 3.48006C13.1146 1.69721 8.68315 3.88863 5.99173 6.97434C4.38888 8.81147 3.31746 10.8857 2.9746 12.82C2.80317 13.7857 2.68032 15.5543 3.79745 16.52C4.95745 17.5257 7.12316 17.3029 9.39172 16.0086C8.24887 12.2886 10.4489 7.8829 12.4203 5.61434C13.4631 4.4172 14.726 3.86578 15.9774 4.06006C17.5374 4.30292 18.6917 5.69148 18.786 7.43148C18.8317 8.27433 18.6403 9.15433 18.2003 10.1229C17.4174 11.8515 16.3574 13.5029 15.1403 14.9C14.5546 15.5714 13.9288 16.1943 13.2688 16.7543C15.4403 18.0829 19.5688 15.9543 22.126 13.0229L24.2859 14.9C21.4288 18.1772 17.8603 20 14.866 20ZM15.486 6.88005C15.2546 6.88005 14.9174 7.10576 14.586 7.48862C13.2317 9.0429 11.8289 11.7857 11.9517 14.0972C12.3089 13.76 12.6517 13.4029 12.9803 13.0257C14.0203 11.8343 14.9231 10.4229 15.5917 8.94576C15.8374 8.40576 15.946 7.96005 15.926 7.58576C15.9117 7.31719 15.7803 6.92291 15.5346 6.88576C15.5203 6.88005 15.5031 6.88005 15.486 6.88005Z" fill="black"/>
<path d="M48.0026 12.0914H46.154V0.285767H43.2969H41.4426L37.1455 12.0914V14.9486H43.2969V19.7143H46.154V14.9486H48.0026V12.0914ZM39.9426 12.0914L43.2969 2.87719V12.0914H39.9426Z" fill="black"/>
<path d="M52.29 0.285767L48.29 3.59718L50.0243 5.71432L52.29 3.69718V19.7143H55.1472V0.285767H52.29Z" fill="black"/>
<path d="M34.0049 19.7143H36.8592L33.4278 0.285767H28.8621L25.4307 19.7143H28.2849L29.0935 14.9486H33.1935L34.0049 19.7143ZM29.5792 12.0914L31.1449 2.87719L32.7106 12.0914H29.5792Z" fill="black"/>
<path d="M58.6274 2.17115C58.816 2.08829 58.9302 1.91686 58.9302 1.68543C58.9302 1.35686 58.7017 1.14258 58.3445 1.14258H57.9874H57.7588H57.6445V2.85686H57.9874V2.22829H58.2731L58.616 2.85686H59.016L58.6274 2.17115ZM58.5874 1.68543C58.5874 1.82829 58.5131 1.94258 58.2874 1.94258H57.9874V1.42829H58.2874C58.5131 1.42829 58.5874 1.54258 58.5874 1.68543Z" fill="black"/>
<path d="M58.2885 0.285645C57.3428 0.285645 56.5742 1.05421 56.5742 1.99992C56.5742 2.94563 57.3428 3.7142 58.2885 3.7142C59.2342 3.7142 60.0028 2.94563 60.0028 1.99992C60.0028 1.05421 59.2342 0.285645 58.2885 0.285645ZM58.2885 3.37135C57.5314 3.37135 56.9171 2.75706 56.9171 1.99992C56.9171 1.24278 57.5314 0.6285 58.2885 0.6285C59.0456 0.6285 59.6599 1.24278 59.6599 1.99992C59.6599 2.75706 59.0456 3.37135 58.2885 3.37135Z" fill="black"/>
</svg>
